# xmcd CD database file
#
# Track frame offsets:
#	150
#	10576
#	22163
#	31299
#	42734
#	52316
#	63402
#	75429
#	87962
#	102108
#	115683
#	127151
#	138213
#	148597
#	158989
#	170166
#	184577
#	200581
#	212432
#	228627
#	244521
#	259225
#	282064
#	307237
#	317392
#
# Disc length: 4397 seconds
#
# Revision: 1
# Processed by: cddbd v1.5.2PL0 Copyright (c) Steve Scherf et al.
# Submitted via: CDex 1.51
#
DISCID=66112b19
DTITLE=Various Artist - Mama's Got A Bag Of Her Own
DYEAR=2006
DGENRE=Soul
TTITLE0=Gloria Jones - What You Want
TTITLE1=Esther Philips - Nobody But You
TTITLE2=Debbie Dovale - I'm My Own Doctor
TTITLE3=Baby Washington - I'm On The Outside (Looking In)
TTITLE4=Ann Cole - Don't Stop The Wedding
TTITLE5=Dee Dee Warwick - You're No Good
TTITLE6=Anna King - Mama's Got A Bag Of Her Own
TTITLE7=Clydie King - One Of Those Good For Crying Over You Days
TTITLE8=Bettye Lavette - Let Me Down Easy
TTITLE9=Irma Thomas - Some Things You Never Get Used To
TTITLE10=The Four Larks - Groovin' At The Go-Go
TTITLE11=Jean Wells - With My Love And What You Got
TTITLE12=The Exciters - Just Not Ready
TTITLE13=Nancy Wilson - You're All I Need To Get By
TTITLE14=Patti Drew - Hard To Handle
TTITLE15=The Soul Sisters - You Got 'em Beat
TTITLE16=Doris - Beatmaker
TTITLE17=The Three Degrees - There's So Much All Around Me
TTITLE18=Margo Thunder - Expressway To Your Heart
TTITLE19=Ann Sexton - Loving You, Loving Me
TTITLE20=Gwen Mccrae - It Keeps On Raining
TTITLE21=Marlena Shaw - Feel Like Making Love
TTITLE22=Tina Britt - I Love You More That You'll Ever Know
TTITLE23=The Ikettes - I'm Just Not Ready For Love
TTITLE24=Timi Yuro - Gotta Travel On
EXTD=YEAR: 2006
EXTT0=
EXTT1=
EXTT2=
EXTT3=
EXTT4=
EXTT5=
EXTT6=
EXTT7=
EXTT8=
EXTT9=
EXTT10=
EXTT11=
EXTT12=
EXTT13=
EXTT14=
EXTT15=
EXTT16=
EXTT17=
EXTT18=
EXTT19=
EXTT20=
EXTT21=
EXTT22=
EXTT23=
EXTT24=
PLAYORDER=
